<?xml version="1.0" encoding="utf-8"?>
<!-- Generator: Adobe Illustrator 26.0.2, SVG Export Plug-In . SVG Version: 6.00 Build 0)  -->
<svg version="1.1" id="Layer_1" xmlns="http://www.w3.org/2000/svg" xmlns:xlink="http://www.w3.org/1999/xlink" x="0px" y="0px"
	 viewBox="0 0 384 384" style="enable-background:new 0 0 384 384;" xml:space="preserve">
<style type="text/css">
	.st0{fill:#FEFEFE;}
</style>
<g>
	<path d="M192.7,14.4c96.5-0.5,176.9,78.8,177.4,175.1c0.5,99.7-78.4,180.2-177.1,180.6C95.3,370.5,14.2,290.5,13.9,193
		C13.7,96.3,90,14.4,192.7,14.4z"/>
	<path class="st0" d="M176.9,150.5c-8.8,8.8-16.8,16.9-24.8,24.9c-3.9,3.9-8.4,5.4-13.7,3.3c-5.5-2.2-8.9-6.2-9.5-12.2
		c-0.5-3.9,1-7.3,3.8-10c16.6-16.6,33.1-33.3,49.8-49.8c5.6-5.6,13.4-5.6,19.1-0.1c16.7,16.1,33.3,32.3,49.8,48.6
		c5.6,5.6,5.3,13.3-0.2,18.9c-5.6,5.6-12.8,5.9-18.6,0.6c-7.3-6.9-14.4-14-21.6-21c-1-1-2.1-1.9-3.7-3.5c0,2.2,0,3.6,0,5
		c0,36.8,0,73.6,0,110.4c0,11-9.9,18.3-19.9,15c-6.4-2.1-10.3-7.9-10.3-15.4c0-29.5,0-59.1,0-88.6
		C176.9,168.2,176.9,160,176.9,150.5z"/>
</g>
</svg>
