<?xml version="1.0" encoding="utf-8"?>
<!-- Generator: Adobe Illustrator 25.4.1, SVG Export Plug-In . SVG Version: 6.00 Build 0)  -->
<svg version="1.1" id="Layer_1" xmlns:serif="http://www.serif.com/"
	 xmlns="http://www.w3.org/2000/svg" xmlns:xlink="http://www.w3.org/1999/xlink" x="0px" y="0px" viewBox="0 0 1600 400"
	 style="enable-background:new 0 0 1600 400;" xml:space="preserve">
<style type="text/css">
	.st0{fill-rule:evenodd;clip-rule:evenodd;fill:#EFEFEF;}
	.st1{fill-rule:evenodd;clip-rule:evenodd;}
</style>
<circle class="st0" cx="800" cy="200" r="188.5"/>
<path class="st1" d="M800,0c110.4,0,200,89.6,200,200s-89.6,200-200,200s-200-89.6-200-200S689.6,0,800,0z M800,75
	c-33.9,0-38.2,0.1-51.5,0.8c-13.3,0.6-22.4,2.7-30.3,5.8C709.9,84.8,702.9,89,696,96c-6.9,6.9-11.2,13.9-14.4,22.1
	c-3.1,8-5.2,17-5.8,30.3c-0.6,13.3-0.8,17.6-0.8,51.5s0.1,38.2,0.8,51.5c0.6,13.3,2.7,22.4,5.8,30.3c3.2,8.2,7.5,15.2,14.4,22.1
	c6.9,6.9,13.9,11.2,22.1,14.4c8,3.1,17,5.2,30.3,5.8c13.3,0.6,17.6,0.8,51.5,0.8s38.2-0.1,51.5-0.8c13.3-0.6,22.4-2.7,30.3-5.8
	c8.2-3.2,15.2-7.5,22.1-14.4c6.9-6.9,11.2-13.9,14.4-22.1c3.1-8,5.2-17,5.8-30.3c0.6-13.3,0.8-17.6,0.8-51.5s-0.1-38.2-0.8-51.5
	c-0.6-13.3-2.7-22.4-5.8-30.3c-3.2-8.2-7.5-15.2-14.4-22.1c-7-6.9-13.9-11.2-22.1-14.4c-8-3.1-17-5.2-30.3-5.8
	C838.2,75.1,833.9,75,800,75z M800,97.5c33.4,0,37.3,0.1,50.5,0.7c12.2,0.6,18.8,2.6,23.2,4.3c5.8,2.3,10,5,14.4,9.4
	c4.4,4.4,7.1,8.5,9.4,14.4c1.7,4.4,3.7,11,4.3,23.2c0.6,13.2,0.7,17.1,0.7,50.5s-0.1,37.3-0.7,50.5c-0.6,12.2-2.6,18.8-4.3,23.2
	c-2.3,5.8-5,10-9.4,14.4c-4.4,4.4-8.5,7.1-14.4,9.4c-4.4,1.7-11,3.7-23.2,4.3c-13.2,0.6-17.1,0.7-50.5,0.7s-37.3-0.1-50.5-0.7
	c-12.2-0.6-18.8-2.6-23.2-4.3c-5.8-2.3-10-5-14.4-9.4c-4.4-4.4-7.1-8.5-9.3-14.4c-1.7-4.4-3.7-11-4.3-23.2
	c-0.6-13.2-0.7-17.1-0.7-50.5s0.1-37.3,0.7-50.5c0.6-12.2,2.6-18.8,4.3-23.2c2.3-5.8,5-10,9.3-14.4c4.4-4.4,8.5-7.1,14.4-9.4
	c4.4-1.7,11-3.7,23.2-4.3C762.7,97.7,766.6,97.5,800,97.5z M800,135.8c-35.5,0-64.2,28.7-64.2,64.2s28.7,64.2,64.2,64.2
	s64.2-28.7,64.2-64.2S835.5,135.8,800,135.8L800,135.8z M800,241.7c-23,0-41.7-18.7-41.7-41.7s18.7-41.7,41.7-41.7
	s41.7,18.7,41.7,41.7S823,241.7,800,241.7z M881.7,133.3c0,8.3-6.7,15-15,15c-8.3,0-15-6.7-15-15s6.7-15,15-15
	C875,118.3,881.7,125,881.7,133.3z"/>
</svg>
