<?xml version="1.0" encoding="utf-8"?>
<!-- Generator: Adobe Illustrator 25.4.1, SVG Export Plug-In . SVG Version: 6.00 Build 0)  -->
<svg version="1.1" id="Layer_1" xmlns="http://www.w3.org/2000/svg" xmlns:xlink="http://www.w3.org/1999/xlink" x="0px" y="0px"
	 viewBox="0 0 50 50" style="enable-background:new 0 0 50 50;" xml:space="preserve">
<style type="text/css">
	.st0{fill-rule:evenodd;clip-rule:evenodd;fill:#EFEFEF;}
	.st1{fill-rule:evenodd;clip-rule:evenodd;}
</style>
<rect x="8" y="8" class="st0" width="34" height="34"/>
<path class="st1" d="M25.1,0C38.8,0,50,11.2,50,24.9S38.8,49.8,25.1,49.8S0.2,38.6,0.2,24.9S11.4,0,25.1,0z M17.3,38.9V19.4h-6.5
	v19.4H17.3z M40.6,38.9V27.7c0-6-3.2-8.8-7.4-8.8c-3.4,0-5,1.9-5.8,3.2v-2.8h-6.5c0.1,1.8,0,19.4,0,19.4h6.5V28c0-0.6,0-1.2,0.2-1.6
	c0.5-1.2,1.5-2.4,3.3-2.4c2.3,0,3.3,1.8,3.3,4.4v10.4L40.6,38.9L40.6,38.9z M14.1,10.1c-2.2,0-3.7,1.5-3.7,3.4
	c0,1.9,1.4,3.4,3.6,3.4h0c2.3,0,3.7-1.5,3.7-3.4C17.7,11.5,16.3,10.1,14.1,10.1L14.1,10.1z"/>
</svg>
